<svg xmlns="http://www.w3.org/2000/svg" xmlns:xlink="http://www.w3.org/1999/xlink" width="500" zoomAndPan="magnify" viewBox="0 0 375 374.999991" height="500" preserveAspectRatio="xMidYMid meet" version="1.0"><defs><filter x="0%" y="0%" width="100%" height="100%" id="7420501f76"><feColorMatrix values="0 0 0 0 1 0 0 0 0 1 0 0 0 0 1 0 0 0 1 0" color-interpolation-filters="sRGB"/></filter><mask id="9602a36cb7"><g filter="url(#7420501f76)"><rect x="-37.5" width="450" fill="#000000" y="-37.499999" height="449.999989" fill-opacity="0.8"/></g></mask><clipPath id="539015f881"><path d="M 1 0.25 L 113.5 0.25 L 113.5 112.75 L 1 112.75 Z M 1 0.25 " clip-rule="nonzero"/></clipPath><clipPath id="21fcc2b1ce"><path d="M 57.25 0.25 C 26.183594 0.25 1 25.433594 1 56.5 C 1 87.566406 26.183594 112.75 57.25 112.75 C 88.316406 112.75 113.5 87.566406 113.5 56.5 C 113.5 25.433594 88.316406 0.25 57.25 0.25 Z M 57.25 0.25 " clip-rule="nonzero"/></clipPath><clipPath id="f6dd5922f7"><rect x="0" width="114" y="0" height="113"/></clipPath><mask id="f79f890f48"><g filter="url(#7420501f76)"><rect x="-37.5" width="450" fill="#000000" y="-37.499999" height="449.999989" fill-opacity="0.8"/></g></mask><clipPath id="7ee608b5de"><path d="M 0.25 0.25 L 112.75 0.25 L 112.75 112.75 L 0.25 112.75 Z M 0.25 0.25 " clip-rule="nonzero"/></clipPath><clipPath id="4c0b66531d"><path d="M 56.5 0.25 C 25.433594 0.25 0.25 25.433594 0.25 56.5 C 0.25 87.566406 25.433594 112.75 56.5 112.75 C 87.566406 112.75 112.75 87.566406 112.75 56.5 C 112.75 25.433594 87.566406 0.25 56.5 0.25 Z M 56.5 0.25 " clip-rule="nonzero"/></clipPath><clipPath id="00df6b6d13"><rect x="0" width="113" y="0" height="113"/></clipPath><mask id="00e20e732b"><g filter="url(#7420501f76)"><rect x="-37.5" width="450" fill="#000000" y="-37.499999" height="449.999989" fill-opacity="0.8"/></g></mask><clipPath id="1e50a73c6b"><path d="M 0.5 0.25 L 113 0.25 L 113 112.75 L 0.5 112.75 Z M 0.5 0.25 " clip-rule="nonzero"/></clipPath><clipPath id="4ae9f2a84f"><path d="M 56.75 0.25 C 25.683594 0.25 0.5 25.433594 0.5 56.5 C 0.5 87.566406 25.683594 112.75 56.75 112.75 C 87.816406 112.75 113 87.566406 113 56.5 C 113 25.433594 87.816406 0.25 56.75 0.25 Z M 56.75 0.25 " clip-rule="nonzero"/></clipPath><clipPath id="2c8bc0fdf8"><rect x="0" width="113" y="0" height="113"/></clipPath></defs><g mask="url(#9602a36cb7)"><g transform="matrix(1, 0, 0, 1, 224, 131)"><g clip-path="url(#f6dd5922f7)"><g clip-path="url(#539015f881)"><g clip-path="url(#21fcc2b1ce)"><path fill="#5ce1e6" d="M 1 0.25 L 113.5 0.25 L 113.5 112.75 L 1 112.75 Z M 1 0.25 " fill-opacity="1" fill-rule="nonzero"/></g></g></g></g></g><g mask="url(#f79f890f48)"><g transform="matrix(1, 0, 0, 1, 131, 131)"><g clip-path="url(#00df6b6d13)"><g clip-path="url(#7ee608b5de)"><g clip-path="url(#4c0b66531d)"><path fill="#5271ff" d="M 0.25 0.25 L 112.75 0.25 L 112.75 112.75 L 0.25 112.75 Z M 0.25 0.25 " fill-opacity="1" fill-rule="nonzero"/></g></g></g></g></g><g mask="url(#00e20e732b)"><g transform="matrix(1, 0, 0, 1, 37, 131)"><g clip-path="url(#2c8bc0fdf8)"><g clip-path="url(#1e50a73c6b)"><g clip-path="url(#4ae9f2a84f)"><path fill="#004aad" d="M 0.5 0.25 L 113 0.25 L 113 112.75 L 0.5 112.75 Z M 0.5 0.25 " fill-opacity="1" fill-rule="nonzero"/></g></g></g></g></g></svg>